<mxfile host="app.diagrams.net" modified="2024-02-14T03:07:17.504Z" agent="Mozilla/5.0 (Windows NT 10.0; Win64; x64) AppleWebKit/537.36 (KHTML, like Gecko) Chrome/121.0.0.0 Safari/537.36" version="23.1.4" etag="6qNhelMxQ4nNGlFXBn6_" type="github">
  <diagram name="Page-1" id="AcW0Z6PNNwn7plAulHl2">
    <mxGraphModel>
      <root>
        <mxCell id="0" />
        <mxCell id="1" parent="0" />
      </root>
    </mxGraphModel>
  </diagram>
</mxfile>
